# xmcd
#
# Track frame offsets:
#	150
#	15628
#	30716
#	45788
#	59830
#	75799
#	89110
#	103231
#	117796
#	134033
#	149124
#	168621
#	181874
#	198112
#
# Disc length: 2842 seconds
#
# Revision: 1
# Processed by: cddbd v1.5.1PL0 Copyright (c) Steve Scherf et al.
# Submitted via: audiograbber 1.80
#
DISCID=c30b180e
DTITLE=Die Flippers - Wenn es Nacht wird
DYEAR=1900
DGENRE=
TTITLE0=Wenn es Nacht wird
TTITLE1=Schenk mir diese Nacht
TTITLE2=Gib mir die Hand
TTITLE3=Melodie d'amour
TTITLE4=Liebeskummer
TTITLE5=Der Himmel hat dich für mich erdacht
TTITLE6=Sterne der Nacht
TTITLE7=Bleib heut nacht
TTITLE8=Moonleght Lady
TTITLE9=Mädchen mit den traurigen Augen
TTITLE10=Ich halt' Dich
TTITLE11=Lass doch deine Tränen sein
TTITLE12=Verlorene Herzen
TTITLE13=Und in der Nacht
EXTD=
EXTT0=
EXTT1=
EXTT2=
EXTT3=
EXTT4=
EXTT5=
EXTT6=
EXTT7=
EXTT8=
EXTT9=
EXTT10=
EXTT11=
EXTT12=
EXTT13=
PLAYORDER=
